<svg xmlns="http://www.w3.org/2000/svg" width="256" height="43.982" viewBox="0 0 256 43.982"><defs><style>.a{isolation:isolate;}.b{fill:#222;}.c{fill:#231815;}</style></defs><g transform="translate(-307.499 -1107.504)"><g transform="translate(361.477 1110.506)"><g class="a" transform="translate(0 0)"><path class="b" d="M16.218-.166a.186.186,0,0,1-.211.209H13.259q-.238,0-.238-.213V-.863a.186.186,0,0,0-.208-.213H3.352a.186.186,0,0,0-.208.213V-.17a.185.185,0,0,1-.206.213H.232A.183.183,0,0,1,.026-.166V-20.591A.184.184,0,0,1,.234-20.8H16.01a.184.184,0,0,1,.208.209Zm-3.2-12.723V-17.5a.184.184,0,0,0-.209-.207H3.354a.184.184,0,0,0-.209.207v4.608a.184.184,0,0,0,.209.207h9.458A.184.184,0,0,0,13.021-12.888Zm0,8.508v-5a.184.184,0,0,0-.209-.208H3.354a.184.184,0,0,0-.209.208v5a.184.184,0,0,0,.209.208h9.458A.184.184,0,0,0,13.021-4.381ZM42.389-.79q0,.208-.156.052a2.957,2.957,0,0,0-.364-.286A25.438,25.438,0,0,1,38.1-4.875q-.13-.182-.13.052v1.379a.184.184,0,0,1-.208.208H34.28q-.208,0-.208.184V-.167q0,.21-.182.21H31.421a.185.185,0,0,1-.208-.21V-3.052q0-.184-.208-.184H27.523a.184.184,0,0,1-.208-.208V-4.823q0-.234-.13-.052a23.892,23.892,0,0,1-3.768,3.851q-.13.1-.364.286Q22.9-.582,22.9-.79V-4.511a.7.7,0,0,1,.286-.468,25.554,25.554,0,0,0,4.34-4.892,12.243,12.243,0,0,0,1.923-3.955q.026-.182-.1-.182H23.1q-.208,0-.208-.182v-2.524a.184.184,0,0,1,.207-.208h7.773a.184.184,0,0,0,.207-.208v-3.461a.185.185,0,0,1,.21-.208h2.7a.185.185,0,0,1,.21.208v3.461q0,.208.182.208h7.823q.182,0,.182.208v2.524a.161.161,0,0,1-.182.182H35.944q-.13,0-.1.182a12.243,12.243,0,0,0,1.923,3.955A25.554,25.554,0,0,0,42.1-4.979a.7.7,0,0,1,.286.468ZM37.035-6.306q-.468-.651-.936-1.405a25.529,25.529,0,0,1-1.923-3.669q-.1-.208-.1.026v5.022a.184.184,0,0,0,.208.208h2.677Q37.165-6.124,37.035-6.306Zm-5.822-.026v-5.022q0-.234-.078-.026a26.109,26.109,0,0,1-2.885,5.074q-.13.182.1.182h2.651A.184.184,0,0,0,31.214-6.332Zm37.269-7.884a.184.184,0,0,1-.208.208H60.816q-.208,0-.13.183.988,5.187,7.043,9.646a6.782,6.782,0,0,1,.65.391.305.305,0,0,1,.1.261V-.061q0,.208-.156.1L68.015-.14a30.753,30.753,0,0,1-3.976-2.948q-4.184-3.7-5.224-7.434-1.04,3.73-5.224,7.434A30.753,30.753,0,0,1,49.614-.14L49.3.043q-.156.1-.156-.1V-3.477q0-.209.1-.261.286-.183.676-.391a23.167,23.167,0,0,0,3.119-2.737,13.946,13.946,0,0,0,3.924-6.961q.052-.183-.13-.183H49.354a.184.184,0,0,1-.208-.208v-2.55a.184.184,0,0,1,.208-.208h7.615a.184.184,0,0,0,.208-.208v-3.409a.184.184,0,0,1,.208-.208H60.27q.182,0,.182.208v3.409a.184.184,0,0,0,.208.208h7.615a.184.184,0,0,1,.208.208Zm26.873.989q0,.182-.208.182H92.809q-.208,0-.208-.182V-15.7a.161.161,0,0,0-.182-.182H78.359q-.208,0-.208.182v2.472q0,.182-.208.182H75.6q-.208,0-.208-.182v-5q0-.182.208-.182h2.807q.234,0,.1-.182l-1.248-2q-.13-.208.1-.208h3.015q.286,0,.364.182.052.078,1.014,2.03a.285.285,0,0,0,.286.182h1.429q.208,0,.13-.182l-1.066-2.03q-.078-.182.1-.182h2.911q.208,0,.39.416l.806,1.769a.317.317,0,0,0,.286.208h1.325a.469.469,0,0,0,.338-.158,18.032,18.032,0,0,0,1.767-2.1.373.373,0,0,1,.312-.132H93.9q.208,0,.1.211l-.208.237q-.312.342-1.585,1.789-.13.158.078.158h2.859q.208,0,.208.182Zm0,6.193q0,.182-.208.182h-8a.184.184,0,0,0-.208.209v4.519Q86.935.043,84.6.043H80.906A.184.184,0,0,1,80.7-.165V-2.794A.184.184,0,0,1,80.906-3h2.807q.234,0,.234-.288V-6.643a.184.184,0,0,0-.208-.209H75.6q-.208,0-.208-.182V-9.481a.184.184,0,0,1,.208-.208h8.135q.208,0,.208-.182V-10.7q0-.182.442-.39l2.5-1.067q.208-.078,0-.078H79.32a.184.184,0,0,1-.208-.208v-2.212a.184.184,0,0,1,.208-.208H91.458a.184.184,0,0,1,.208.208v2a.566.566,0,0,1-.312.442l-3.82,2.394q-.234.13.026.13h7.589a.184.184,0,0,1,.208.208ZM110.4-8.414l-1.741.026a.189.189,0,0,1-.208-.182,6.14,6.14,0,0,0-.078-.625,3.553,3.553,0,0,0-.7.026V-.14a.161.161,0,0,1-.182.183h-1.975a.161.161,0,0,1-.182-.183V-8.856a.16.16,0,0,0-.18-.183l-2.68.286q-.181.026-.181-.156l-.026-2.81q1.079,0,1.438-.026l.771-1.015a14.463,14.463,0,0,0-2.417-2.628l1.2-2.68q.078-.182.208-.052a3.394,3.394,0,0,1,.364.312A22.038,22.038,0,0,0,105.05-20.8l2.313.6q.182.026.1.208-1.559,3.1-2,3.877.182.208.65.807.6-.963,1.767-3.2l2.157.989a.075.075,0,0,1,.052.026v-2.42a.161.161,0,0,1,.182-.182h10.162a.161.161,0,0,1,.182.182v2.654a1.065,1.065,0,0,1-.052.338l-2.6,3.253q-.1.156.052.234l2.313.963a.225.225,0,0,1,.182.234v2.55q0,.182-.182.13a20.173,20.173,0,0,1-4.99-2,17.263,17.263,0,0,1-4.808,2.212v-2.94a.189.189,0,0,1,.182-.208,10.071,10.071,0,0,0,2.209-.885,14.187,14.187,0,0,1-2.391-3.357h2.922a.348.348,0,0,1,.287.13q.574.651,1.617,1.691a16.127,16.127,0,0,0,1.9-2q.1-.156-.078-.156h-6.913a.161.161,0,0,1-.182-.182,55.117,55.117,0,0,1-3.639,5.542q.39.026,1.429-.026a13.378,13.378,0,0,0-.364-1.327l1.585-.572q.156-.052.208.13.312,1.249.624,2.524A25.273,25.273,0,0,1,110.4-8.414Zm-.572,5.282h-1.17a.189.189,0,0,1-.208-.182q-.156-3.07-.416-4.762h1.611a.189.189,0,0,1,.208.181l.442,4.139h3.431a.161.161,0,0,0,.182-.182V-5.4a.161.161,0,0,0-.182-.182h-2.547A.161.161,0,0,1,111-5.76v-2.6a.161.161,0,0,1,.182-.182h2.547a.161.161,0,0,0,.182-.182V-9.949a.161.161,0,0,1,.182-.182h2.547a.161.161,0,0,1,.182.182v1.223a.161.161,0,0,0,.182.182h2.833a.161.161,0,0,1,.182.182v2.6a.161.161,0,0,1-.182.182h-2.833a.161.161,0,0,0-.182.182v1.457a.161.161,0,0,0,.182.182h3.665a.161.161,0,0,1,.182.182V-.842a.161.161,0,0,1-.182.182H110.014a.161.161,0,0,1-.182-.182Zm-5-4.317-.693,6.217q0,.182-.13.052L102.373-2.95a.321.321,0,0,1-.1-.312l.52-4.189a.162.162,0,0,1,.184-.182h1.7Q104.858-7.633,104.832-7.449ZM147-10.262q0,.182-.156.182A19.8,19.8,0,0,1,139.72-11.9a15.3,15.3,0,0,1-6.6,1.717h-.442a.161.161,0,0,1-.182-.182v-2.5a.189.189,0,0,1,.182-.208,28.181,28.181,0,0,0,4.34-.755q-.494-.442-.962-.885a9.375,9.375,0,0,1-1.377-1.743H133.3a.161.161,0,0,1-.182-.182v-2.472a.161.161,0,0,1,.182-.182h4.886a.161.161,0,0,0,.182-.182v-.911a.161.161,0,0,1,.182-.182h2.625a.161.161,0,0,1,.182.182v.911a.161.161,0,0,0,.182.182h4.912a.161.161,0,0,1,.182.182v2.472a.161.161,0,0,1-.182.182H145.1a.326.326,0,0,0-.286.156,9.684,9.684,0,0,1-2.105,2.55,20.781,20.781,0,0,0,4.288.677Zm-5.458-6.063q.13-.13-.052-.13h-3.431a9.612,9.612,0,0,0,1.819,1.483A12.136,12.136,0,0,0,141.54-16.324Zm-8.862,2.342q0,.182-.156.078l-3.872-2.862a.378.378,0,0,1-.182-.312v-3.643q0-.208.182-.078l3.872,2.706a.42.42,0,0,1,.156.338ZM145.412-.14a.161.161,0,0,1-.182.183h-2.6a.162.162,0,0,1-.182-.185V-3.155a.162.162,0,0,0-.182-.185H136.55A8.151,8.151,0,0,1,134.756.043Q134.7.069,134.535,0a1.665,1.665,0,0,1-.325-.169l-2-1.513a.192.192,0,0,1-.052-.261,10.918,10.918,0,0,0,1.9-4.9V-10a.16.16,0,0,1,.18-.183h2.576a.16.16,0,0,1,.18.182v.364q0,.156.182.156h5.094q.182,0,.182-.156V-10a.161.161,0,0,1,.182-.182h2.6a.161.161,0,0,1,.182.183Zm-2.963-5.672V-6.957a.161.161,0,0,0-.182-.182h-5.094a.161.161,0,0,0-.182.182v1.145q0,.182.156.182h5.12A.161.161,0,0,0,142.449-5.812ZM131.326-8.024q0,.182-.182.078l-3.872-2.862a.42.42,0,0,1-.156-.338v-3.617q0-.208.182-.078l3.846,2.706a.4.4,0,0,1,.182.338Zm1.455,4.138q-.754.681-2.6,2.122a16.922,16.922,0,0,1-2.6,1.807l-.026-3.8a.4.4,0,0,1,.182-.34l4.86-3.85q.156-.13.156.078Zm40.544-9.342q0,.182-.208.182h-2.339q-.208,0-.208-.182V-15.7a.161.161,0,0,0-.182-.182h-14.06q-.208,0-.208.182v2.472q0,.182-.208.182h-2.339q-.208,0-.208-.182v-5q0-.182.208-.182h2.807q.234,0,.1-.182l-1.247-2q-.13-.208.1-.208h3.015q.286,0,.364.182.052.078,1.014,2.03a.285.285,0,0,0,.286.182h1.429q.208,0,.13-.182l-1.066-2.03q-.078-.182.1-.182h2.911q.208,0,.39.416l.806,1.769a.317.317,0,0,0,.286.208h1.325a.469.469,0,0,0,.338-.158,18.032,18.032,0,0,0,1.767-2.1.373.373,0,0,1,.312-.132h3.119q.208,0,.1.211l-.208.237q-.312.342-1.585,1.789-.13.158.078.158h2.859q.208,0,.208.182Zm0,6.193q0,.182-.208.182h-8a.184.184,0,0,0-.208.209v4.519q0,2.168-2.339,2.168h-3.691a.184.184,0,0,1-.208-.208V-2.794A.184.184,0,0,1,158.875-3h2.807q.234,0,.234-.288V-6.643a.184.184,0,0,0-.208-.209h-8.135q-.208,0-.208-.182V-9.481a.184.184,0,0,1,.208-.208h8.135q.208,0,.208-.182V-10.7q0-.182.442-.39l2.5-1.067q.208-.078,0-.078h-7.563a.184.184,0,0,1-.208-.208v-2.212a.184.184,0,0,1,.208-.208h12.137a.184.184,0,0,1,.208.208v2a.566.566,0,0,1-.312.442L165.5-9.819q-.234.13.026.13h7.589a.184.184,0,0,1,.208.208Zm25.782.989q0,4.007-3.015,4.007h-1.533q-.182,0-.182-.208V-5.005q0-.208.1-.208h.312a.916.916,0,0,0,.364-.078,1.544,1.544,0,0,0,.832-1.509,7.86,7.86,0,0,0-1.793-5,23.569,23.569,0,0,0,1.481-5.412h-1.689a.184.184,0,0,0-.208.209V-.166a.184.184,0,0,1-.208.209h-2.5a.184.184,0,0,1-.208-.209V-20.045a.184.184,0,0,1,.208-.209h7.433a.184.184,0,0,1,.208.208v2.576a.981.981,0,0,1-.078.39q-1.2,3.773-1.611,4.866A9.783,9.783,0,0,1,199.107-6.046Zm-8.655-4.45a.184.184,0,0,1-.208.208H179.952a.184.184,0,0,1-.208-.208v-2.5a.184.184,0,0,1,.208-.208h1.092a.184.184,0,0,0,.208-.208v-2.628q0-.182-.208-.182h-.6a.184.184,0,0,1-.208-.208v-2.55a.184.184,0,0,1,.208-.208h3.041q.208,0,.208-.182v-1.223a.184.184,0,0,1,.208-.208h2.521a.184.184,0,0,1,.208.208v1.223q0,.182.208.182h3.041a.184.184,0,0,1,.208.208v2.55a.184.184,0,0,1-.208.208h-.442q-.208,0-.208.182v2.628a.184.184,0,0,0,.208.208h.806a.184.184,0,0,1,.208.208Zm-3.976-2.914v-2.628q0-.182-.208-.182h-2.157q-.208,0-.208.182v2.628a.184.184,0,0,0,.208.208h2.157A.184.184,0,0,0,186.476-13.41Zm3.379,12.152a.184.184,0,0,1-.209.208h-6.184a.184.184,0,0,0-.209.208V-.3a.183.183,0,0,1-.206.208h-2.4a.183.183,0,0,1-.206-.208V-9.065a.184.184,0,0,1,.208-.208h8.992a.184.184,0,0,1,.208.208ZM187.047-4.1V-6.278a.185.185,0,0,0-.21-.21h-3.375a.186.186,0,0,0-.21.21V-4.1a.186.186,0,0,0,.21.21h3.375A.185.185,0,0,0,187.047-4.1Z" transform="translate(-0.026 20.85)"/></g><g class="a" transform="translate(0.694 26.677)"><path class="b" d="M.72.007V-8.4H2.069L5.926-2.25V-8.4H7.173V.007H5.824L1.968-6.142V.007ZM8.613-6H9.86v6H8.613Zm.636-.871a.662.662,0,0,1-.48-.186.625.625,0,0,1-.192-.468.628.628,0,0,1,.192-.465.649.649,0,0,1,.474-.189.641.641,0,0,1,.468.189.628.628,0,0,1,.192.465.63.63,0,0,1-.189.468A.637.637,0,0,1,9.249-6.868Zm7.473,3.11V.007H15.474V-3.451a1.414,1.414,0,0,0-.195-.733,1.476,1.476,0,0,0-.522-.525,1.406,1.406,0,0,0-.735-.2,1.4,1.4,0,0,0-.726.2,1.492,1.492,0,0,0-.528.525,1.4,1.4,0,0,0-.2.733V.007H11.324V-9h1.248v3.639a2.238,2.238,0,0,1,.768-.588,2.266,2.266,0,0,1,.984-.216,2.327,2.327,0,0,1,1.212.324,2.426,2.426,0,0,1,.867.871A2.351,2.351,0,0,1,16.722-3.758ZM20.44.163a2.785,2.785,0,0,1-1.508-.426,3.154,3.154,0,0,1-1.086-1.144A3.176,3.176,0,0,1,17.441-3a3.236,3.236,0,0,1,.234-1.234,3.235,3.235,0,0,1,.645-1.009,3,3,0,0,1,.957-.682,2.8,2.8,0,0,1,1.164-.246,2.785,2.785,0,0,1,1.508.426,3.147,3.147,0,0,1,1.086,1.147,3.2,3.2,0,0,1,.4,1.6,3.2,3.2,0,0,1-.234,1.225A3.244,3.244,0,0,1,22.56-.764a3.008,3.008,0,0,1-.954.682A2.791,2.791,0,0,1,20.44.163Zm0-1.249a1.573,1.573,0,0,0,.894-.264,1.89,1.89,0,0,0,.627-.7A1.987,1.987,0,0,0,22.191-3a1.988,1.988,0,0,0-.237-.961,1.909,1.909,0,0,0-.633-.7,1.566,1.566,0,0,0-.882-.261,1.577,1.577,0,0,0-.891.264,1.875,1.875,0,0,0-.63.7A2.017,2.017,0,0,0,18.689-3a1.959,1.959,0,0,0,.24.967,1.887,1.887,0,0,0,.639.688A1.587,1.587,0,0,0,20.44-1.086Zm9.368-2.672V.007H28.561V-3.451a1.414,1.414,0,0,0-.195-.733,1.476,1.476,0,0,0-.522-.525,1.406,1.406,0,0,0-.735-.2,1.4,1.4,0,0,0-.726.2,1.492,1.492,0,0,0-.528.525,1.4,1.4,0,0,0-.2.733V.007H24.411V-6h1.248v.637a2.238,2.238,0,0,1,.768-.588,2.266,2.266,0,0,1,.984-.216,2.327,2.327,0,0,1,1.212.324,2.426,2.426,0,0,1,.867.871A2.351,2.351,0,0,1,29.808-3.758Zm7.4,3.921a3.113,3.113,0,0,1-1.754-.492A3.307,3.307,0,0,1,34.3-1.653,4.112,4.112,0,0,1,33.887-3.5V-8.4h1.248v4.9a2.959,2.959,0,0,0,.243,1.21,2.072,2.072,0,0,0,.708.877,1.9,1.9,0,0,0,1.125.327,1.921,1.921,0,0,0,1.14-.327,2.038,2.038,0,0,0,.7-.877,3.024,3.024,0,0,0,.237-1.21V-8.4h1.248v4.9A4.259,4.259,0,0,1,40.3-2.073a3.575,3.575,0,0,1-.672,1.168,3.084,3.084,0,0,1-1.05.787A3.226,3.226,0,0,1,37.209.163ZM47.225-3.758V.007H45.978V-3.451a1.414,1.414,0,0,0-.195-.733,1.476,1.476,0,0,0-.522-.525,1.406,1.406,0,0,0-.735-.2,1.4,1.4,0,0,0-.726.2,1.492,1.492,0,0,0-.528.525,1.4,1.4,0,0,0-.2.733V.007H41.828V-6h1.247v.637a2.238,2.238,0,0,1,.768-.588,2.266,2.266,0,0,1,.984-.216,2.327,2.327,0,0,1,1.212.324,2.426,2.426,0,0,1,.867.871A2.351,2.351,0,0,1,47.225-3.758ZM48.425-6h1.248v6H48.425Zm.636-.871a.662.662,0,0,1-.48-.186.625.625,0,0,1-.192-.468.628.628,0,0,1,.192-.465.649.649,0,0,1,.474-.189.641.641,0,0,1,.468.189.628.628,0,0,1,.192.465.63.63,0,0,1-.189.468A.637.637,0,0,1,49.061-6.868ZM54.4.007H52.8L50.608-6.009H51.94l1.655,4.576,1.661-4.576h1.325Zm5.518.156a2.785,2.785,0,0,1-1.508-.426,3.154,3.154,0,0,1-1.086-1.144A3.176,3.176,0,0,1,56.918-3a3.236,3.236,0,0,1,.234-1.234A3.235,3.235,0,0,1,57.8-5.238a3,3,0,0,1,.957-.682,2.8,2.8,0,0,1,1.164-.246,2.811,2.811,0,0,1,1.265.285,2.932,2.932,0,0,1,.984.787,3.27,3.27,0,0,1,.6,1.153,3.532,3.532,0,0,1,.114,1.384H58.255a1.973,1.973,0,0,0,.3.748,1.63,1.63,0,0,0,.576.525,1.651,1.651,0,0,0,.783.2,1.567,1.567,0,0,0,.831-.228,1.8,1.8,0,0,0,.615-.631l1.265.294A3.143,3.143,0,0,1,61.542-.344,2.771,2.771,0,0,1,59.916.163Zm-1.7-3.675H61.62a1.791,1.791,0,0,0-.3-.784,1.836,1.836,0,0,0-.606-.558,1.575,1.575,0,0,0-.795-.207,1.582,1.582,0,0,0-.789.2,1.751,1.751,0,0,0-.6.555A2.031,2.031,0,0,0,58.213-3.512ZM63.875.007V-6h1.248v.637a2.238,2.238,0,0,1,.768-.588,2.266,2.266,0,0,1,.984-.216,2.517,2.517,0,0,1,.666.09l-.5,1.261a1.294,1.294,0,0,0-.468-.09,1.4,1.4,0,0,0-.726.2,1.492,1.492,0,0,0-.528.525,1.4,1.4,0,0,0-.2.733V.007Zm6.16.114a3.332,3.332,0,0,1-.924-.192,2.63,2.63,0,0,1-.789-.441,1.783,1.783,0,0,1-.507-.658l1.062-.456a.953.953,0,0,0,.273.318,1.662,1.662,0,0,0,.459.255,1.557,1.557,0,0,0,.552.1,1.648,1.648,0,0,0,.525-.081.936.936,0,0,0,.4-.249.571.571,0,0,0,.156-.4.505.505,0,0,0-.177-.411,1.222,1.222,0,0,0-.441-.225q-.264-.078-.528-.15a5.154,5.154,0,0,1-1.077-.363,2.132,2.132,0,0,1-.777-.594,1.391,1.391,0,0,1-.288-.892,1.639,1.639,0,0,1,.312-1,2.031,2.031,0,0,1,.819-.652A2.606,2.606,0,0,1,70.166-6.2a2.859,2.859,0,0,1,1.319.306,2.2,2.2,0,0,1,.918.841l-.99.588a.976.976,0,0,0-.27-.324,1.508,1.508,0,0,0-.408-.231,1.528,1.528,0,0,0-.474-.1,1.677,1.677,0,0,0-.567.069.905.905,0,0,0-.417.255.641.641,0,0,0-.156.444.446.446,0,0,0,.186.393,1.532,1.532,0,0,0,.471.207q.285.078.585.174a6.213,6.213,0,0,1,1,.411,2.357,2.357,0,0,1,.756.6A1.277,1.277,0,0,1,72.4-1.7a1.546,1.546,0,0,1-.339.991,2.137,2.137,0,0,1-.879.649A2.57,2.57,0,0,1,70.034.121ZM73.315-6h1.247v6H73.315Zm.636-.871a.662.662,0,0,1-.48-.186.625.625,0,0,1-.192-.468.628.628,0,0,1,.192-.465.649.649,0,0,1,.474-.189.641.641,0,0,1,.468.189.628.628,0,0,1,.192.465.63.63,0,0,1-.189.468A.637.637,0,0,1,73.951-6.868Zm5.218,2.12H77.909L77.9.007H76.656l.006-4.756h-.954V-6h.954l-.006-1.886H77.9L77.909-6h1.259Zm5-1.249H85.5L82.21,3.01H80.884l1.086-3L79.816-6h1.361L82.593-1.7Zm9.3,6.161a3.839,3.839,0,0,1-1.6-.339,4.164,4.164,0,0,1-1.316-.937,4.394,4.394,0,0,1-.888-1.39A4.47,4.47,0,0,1,89.335-4.2a4.47,4.47,0,0,1,.321-1.693,4.394,4.394,0,0,1,.888-1.39,4.164,4.164,0,0,1,1.316-.937,3.839,3.839,0,0,1,1.6-.339,3.814,3.814,0,0,1,1.877.474A4.266,4.266,0,0,1,96.76-6.82l-1.11.594a2.9,2.9,0,0,0-.966-.787,2.652,2.652,0,0,0-1.224-.294,2.6,2.6,0,0,0-1.122.246,2.972,2.972,0,0,0-.918.673A3.116,3.116,0,0,0,90.8-5.4a3.253,3.253,0,0,0-.222,1.2,3.245,3.245,0,0,0,.222,1.2A3.133,3.133,0,0,0,91.425-2a2.944,2.944,0,0,0,.921.673,2.608,2.608,0,0,0,1.116.243,2.637,2.637,0,0,0,1.233-.3,2.875,2.875,0,0,0,.957-.79l1.11.606A4.235,4.235,0,0,1,95.338-.308,3.833,3.833,0,0,1,93.461.163Zm6.789,0a2.785,2.785,0,0,1-1.508-.426,3.154,3.154,0,0,1-1.086-1.144A3.176,3.176,0,0,1,97.252-3a3.236,3.236,0,0,1,.234-1.234,3.235,3.235,0,0,1,.645-1.009,3,3,0,0,1,.957-.682,2.8,2.8,0,0,1,1.164-.246,2.785,2.785,0,0,1,1.508.426,3.147,3.147,0,0,1,1.086,1.147,3.2,3.2,0,0,1,.4,1.6,3.2,3.2,0,0,1-.234,1.225,3.244,3.244,0,0,1-.645,1.006,3.008,3.008,0,0,1-.954.682A2.791,2.791,0,0,1,100.25.163Zm0-1.249a1.573,1.573,0,0,0,.894-.264,1.89,1.89,0,0,0,.627-.7A1.987,1.987,0,0,0,102-3a1.988,1.988,0,0,0-.237-.961,1.909,1.909,0,0,0-.633-.7,1.566,1.566,0,0,0-.882-.261,1.577,1.577,0,0,0-.891.264,1.875,1.875,0,0,0-.63.7A2.017,2.017,0,0,0,98.5-3a1.959,1.959,0,0,0,.24.967,1.887,1.887,0,0,0,.639.688A1.587,1.587,0,0,0,100.25-1.086ZM104.143.007V-9h1.248V.007Zm2.687,0V-9h1.248V.007Zm5.248.156a2.785,2.785,0,0,1-1.508-.426,3.154,3.154,0,0,1-1.086-1.144,3.176,3.176,0,0,1-.4-1.588,3.236,3.236,0,0,1,.234-1.234,3.235,3.235,0,0,1,.645-1.009,3,3,0,0,1,.957-.682,2.8,2.8,0,0,1,1.164-.246,2.811,2.811,0,0,1,1.265.285,2.932,2.932,0,0,1,.984.787,3.27,3.27,0,0,1,.6,1.153,3.531,3.531,0,0,1,.114,1.384h-4.624a1.973,1.973,0,0,0,.3.748,1.63,1.63,0,0,0,.576.525,1.651,1.651,0,0,0,.783.2,1.567,1.567,0,0,0,.831-.228,1.8,1.8,0,0,0,.615-.631l1.265.294A3.143,3.143,0,0,1,113.7-.344,2.771,2.771,0,0,1,112.078.163Zm-1.7-3.675h3.407a1.791,1.791,0,0,0-.3-.784,1.836,1.836,0,0,0-.606-.558,1.575,1.575,0,0,0-.795-.207,1.581,1.581,0,0,0-.789.2,1.751,1.751,0,0,0-.6.555A2.031,2.031,0,0,0,110.374-3.512ZM120.588-6h1.248V.163a2.518,2.518,0,0,1-.261,1.141,2.871,2.871,0,0,1-.7.9,3.277,3.277,0,0,1-1.017.591,3.446,3.446,0,0,1-1.2.21,2.871,2.871,0,0,1-1.212-.267,3.357,3.357,0,0,1-1.023-.724,2.978,2.978,0,0,1-.657-1.033L116.912.47a1.752,1.752,0,0,0,.387.661,2.009,2.009,0,0,0,.624.456,1.706,1.706,0,0,0,.735.168,2.214,2.214,0,0,0,.717-.117,2.122,2.122,0,0,0,.618-.327,1.613,1.613,0,0,0,.435-.5,1.311,1.311,0,0,0,.162-.643V-.851a2.309,2.309,0,0,1-.756.736,2.034,2.034,0,0,1-1.074.279,2.964,2.964,0,0,1-1.2-.246,3.114,3.114,0,0,1-.99-.682A3.2,3.2,0,0,1,115.9-1.77,3.127,3.127,0,0,1,115.664-3a3.149,3.149,0,0,1,.24-1.228,3.187,3.187,0,0,1,.666-1.009,3.114,3.114,0,0,1,.99-.682,2.965,2.965,0,0,1,1.2-.246,2.034,2.034,0,0,1,1.074.279,2.288,2.288,0,0,1,.756.742Zm-1.817,4.954a1.573,1.573,0,0,0,.912-.267,1.8,1.8,0,0,0,.606-.712A2.2,2.2,0,0,0,120.5-3a2.179,2.179,0,0,0-.219-.982,1.825,1.825,0,0,0-.609-.709,1.563,1.563,0,0,0-.906-.267,1.685,1.685,0,0,0-.921.264,1.929,1.929,0,0,0-.663.709,2,2,0,0,0-.246.985,1.98,1.98,0,0,0,.249.985,1.929,1.929,0,0,0,.666.706A1.689,1.689,0,0,0,118.771-1.044ZM125.806.163A2.785,2.785,0,0,1,124.3-.263a3.154,3.154,0,0,1-1.086-1.144,3.176,3.176,0,0,1-.4-1.588,3.236,3.236,0,0,1,.234-1.234,3.235,3.235,0,0,1,.645-1.009,3,3,0,0,1,.957-.682,2.8,2.8,0,0,1,1.164-.246,2.811,2.811,0,0,1,1.265.285,2.932,2.932,0,0,1,.984.787,3.27,3.27,0,0,1,.6,1.153,3.532,3.532,0,0,1,.114,1.384h-4.624a1.973,1.973,0,0,0,.3.748,1.63,1.63,0,0,0,.576.525,1.651,1.651,0,0,0,.783.2,1.567,1.567,0,0,0,.831-.228,1.8,1.8,0,0,0,.615-.631l1.266.294a3.143,3.143,0,0,1-1.086,1.306A2.771,2.771,0,0,1,125.806.163Zm-1.7-3.675h3.407a1.791,1.791,0,0,0-.3-.784,1.836,1.836,0,0,0-.606-.558,1.575,1.575,0,0,0-.795-.207,1.581,1.581,0,0,0-.789.2,1.751,1.751,0,0,0-.6.555A2.031,2.031,0,0,0,124.1-3.512ZM135.39.163a2.785,2.785,0,0,1-1.508-.426A3.154,3.154,0,0,1,132.8-1.407a3.176,3.176,0,0,1-.4-1.588,3.236,3.236,0,0,1,.234-1.234,3.235,3.235,0,0,1,.645-1.009,3,3,0,0,1,.957-.682,2.8,2.8,0,0,1,1.164-.246,2.785,2.785,0,0,1,1.508.426,3.147,3.147,0,0,1,1.086,1.147,3.2,3.2,0,0,1,.4,1.6,3.2,3.2,0,0,1-.234,1.225,3.244,3.244,0,0,1-.645,1.006,3.008,3.008,0,0,1-.954.682A2.791,2.791,0,0,1,135.39.163Zm0-1.249a1.573,1.573,0,0,0,.894-.264,1.89,1.89,0,0,0,.627-.7A1.987,1.987,0,0,0,137.142-3a1.988,1.988,0,0,0-.237-.961,1.909,1.909,0,0,0-.633-.7,1.566,1.566,0,0,0-.882-.261,1.578,1.578,0,0,0-.891.264,1.875,1.875,0,0,0-.63.7,2.017,2.017,0,0,0-.231.955,1.958,1.958,0,0,0,.24.967,1.887,1.887,0,0,0,.639.688A1.587,1.587,0,0,0,135.39-1.086Zm5.62-6.275V-6H142.7v1.249H141.01V.007h-1.247V-4.748h-.714V-6h.714V-7.361a1.73,1.73,0,0,1,.24-.9,1.812,1.812,0,0,1,.645-.646,1.736,1.736,0,0,1,.9-.24,1.79,1.79,0,0,1,.7.144,1.716,1.716,0,0,1,.612.444l-.894.883a.43.43,0,0,0-.183-.165.535.535,0,0,0-.237-.057.524.524,0,0,0-.381.156A.511.511,0,0,0,141.01-7.361ZM146.588.007V-8.4H151.8V-7.15h-3.964v2.03h3.191v1.249h-3.191v2.63H151.8V.007Zm10.2-1.705,1.116.606a3.052,3.052,0,0,1-1.035.913,2.789,2.789,0,0,1-1.358.342A2.785,2.785,0,0,1,154-.263a3.154,3.154,0,0,1-1.086-1.144,3.176,3.176,0,0,1-.4-1.588,3.236,3.236,0,0,1,.234-1.234,3.235,3.235,0,0,1,.645-1.009,3,3,0,0,1,.957-.682,2.8,2.8,0,0,1,1.164-.246,2.789,2.789,0,0,1,1.358.342A3.027,3.027,0,0,1,157.9-4.9l-1.116.606a1.728,1.728,0,0,0-.588-.459,1.594,1.594,0,0,0-.69-.159,1.565,1.565,0,0,0-.891.267,1.906,1.906,0,0,0-.63.7,2,2,0,0,0-.231.952,1.967,1.967,0,0,0,.234.946,1.906,1.906,0,0,0,.633.7,1.568,1.568,0,0,0,.885.264,1.561,1.561,0,0,0,.708-.168A1.783,1.783,0,0,0,156.784-1.7Zm4.69,1.861a2.785,2.785,0,0,1-1.508-.426,3.154,3.154,0,0,1-1.086-1.144,3.176,3.176,0,0,1-.4-1.588,3.236,3.236,0,0,1,.234-1.234,3.235,3.235,0,0,1,.645-1.009,3,3,0,0,1,.957-.682,2.8,2.8,0,0,1,1.164-.246,2.785,2.785,0,0,1,1.508.426,3.147,3.147,0,0,1,1.086,1.147,3.2,3.2,0,0,1,.4,1.6,3.2,3.2,0,0,1-.234,1.225,3.245,3.245,0,0,1-.645,1.006,3.008,3.008,0,0,1-.954.682A2.791,2.791,0,0,1,161.474.163Zm0-1.249a1.573,1.573,0,0,0,.894-.264,1.89,1.89,0,0,0,.627-.7A1.987,1.987,0,0,0,163.225-3a1.988,1.988,0,0,0-.237-.961,1.909,1.909,0,0,0-.633-.7,1.566,1.566,0,0,0-.882-.261,1.578,1.578,0,0,0-.891.264,1.875,1.875,0,0,0-.63.7,2.017,2.017,0,0,0-.231.955,1.959,1.959,0,0,0,.24.967,1.887,1.887,0,0,0,.639.688A1.587,1.587,0,0,0,161.474-1.086Zm9.368-2.672V.007h-1.247V-3.451a1.414,1.414,0,0,0-.195-.733,1.476,1.476,0,0,0-.522-.525,1.406,1.406,0,0,0-.735-.2,1.4,1.4,0,0,0-.726.2,1.492,1.492,0,0,0-.528.525,1.4,1.4,0,0,0-.2.733V.007h-1.248V-6h1.248v.637a2.238,2.238,0,0,1,.768-.588,2.266,2.266,0,0,1,.984-.216,2.327,2.327,0,0,1,1.212.324,2.426,2.426,0,0,1,.867.871A2.351,2.351,0,0,1,170.842-3.758ZM174.561.163a2.785,2.785,0,0,1-1.508-.426,3.154,3.154,0,0,1-1.086-1.144,3.176,3.176,0,0,1-.4-1.588,3.236,3.236,0,0,1,.234-1.234,3.235,3.235,0,0,1,.645-1.009,3,3,0,0,1,.957-.682,2.8,2.8,0,0,1,1.164-.246,2.785,2.785,0,0,1,1.508.426,3.147,3.147,0,0,1,1.086,1.147,3.2,3.2,0,0,1,.4,1.6,3.2,3.2,0,0,1-.234,1.225,3.244,3.244,0,0,1-.645,1.006,3.008,3.008,0,0,1-.954.682A2.791,2.791,0,0,1,174.561.163Zm0-1.249a1.573,1.573,0,0,0,.894-.264,1.89,1.89,0,0,0,.627-.7A1.987,1.987,0,0,0,176.312-3a1.988,1.988,0,0,0-.237-.961,1.909,1.909,0,0,0-.633-.7,1.566,1.566,0,0,0-.882-.261,1.578,1.578,0,0,0-.891.264,1.875,1.875,0,0,0-.63.7,2.017,2.017,0,0,0-.231.955,1.958,1.958,0,0,0,.24.967,1.887,1.887,0,0,0,.639.688A1.587,1.587,0,0,0,174.561-1.086Zm3.97,1.093V-6h1.247v.637a2.246,2.246,0,0,1,.765-.588,2.247,2.247,0,0,1,.981-.216,2.335,2.335,0,0,1,1.182.309,2.392,2.392,0,0,1,.858.82,2.415,2.415,0,0,1,.849-.82,2.287,2.287,0,0,1,1.173-.309,2.327,2.327,0,0,1,1.212.324,2.451,2.451,0,0,1,.87.871,2.334,2.334,0,0,1,.324,1.213V.007h-1.248V-3.439a1.42,1.42,0,0,0-.192-.727,1.534,1.534,0,0,0-.516-.534,1.322,1.322,0,0,0-.72-.2,1.384,1.384,0,0,0-.72.192,1.435,1.435,0,0,0-.516.522,1.466,1.466,0,0,0-.192.751V.007H182.64V-3.439a1.466,1.466,0,0,0-.192-.751,1.428,1.428,0,0,0-.519-.522,1.4,1.4,0,0,0-.723-.192,1.327,1.327,0,0,0-.717.2,1.525,1.525,0,0,0-.519.534,1.42,1.42,0,0,0-.192.727V.007Zm10.658-6h1.248v6h-1.248Zm.636-.871a.662.662,0,0,1-.48-.186.625.625,0,0,1-.192-.468.628.628,0,0,1,.192-.465.649.649,0,0,1,.474-.189.641.641,0,0,1,.468.189.628.628,0,0,1,.192.465.63.63,0,0,1-.189.468A.637.637,0,0,1,189.825-6.868Zm5.86,5.17,1.116.606a3.052,3.052,0,0,1-1.035.913,2.789,2.789,0,0,1-1.358.342A2.785,2.785,0,0,1,192.9-.263a3.154,3.154,0,0,1-1.086-1.144,3.176,3.176,0,0,1-.4-1.588,3.236,3.236,0,0,1,.234-1.234,3.235,3.235,0,0,1,.645-1.009,3,3,0,0,1,.957-.682,2.8,2.8,0,0,1,1.164-.246,2.789,2.789,0,0,1,1.358.342A3.027,3.027,0,0,1,196.8-4.9l-1.116.606a1.728,1.728,0,0,0-.588-.459,1.594,1.594,0,0,0-.69-.159,1.565,1.565,0,0,0-.891.267,1.906,1.906,0,0,0-.63.7,2,2,0,0,0-.231.952,1.967,1.967,0,0,0,.234.946,1.906,1.906,0,0,0,.633.7,1.568,1.568,0,0,0,.885.264,1.561,1.561,0,0,0,.708-.168A1.783,1.783,0,0,0,195.684-1.7ZM199.679.121a3.332,3.332,0,0,1-.924-.192,2.63,2.63,0,0,1-.789-.441,1.783,1.783,0,0,1-.507-.658l1.062-.456a.953.953,0,0,0,.273.318,1.662,1.662,0,0,0,.459.255,1.557,1.557,0,0,0,.552.1,1.648,1.648,0,0,0,.525-.081.936.936,0,0,0,.4-.249.571.571,0,0,0,.156-.4.505.505,0,0,0-.177-.411,1.222,1.222,0,0,0-.441-.225q-.264-.078-.528-.15a5.154,5.154,0,0,1-1.077-.363,2.132,2.132,0,0,1-.777-.594,1.391,1.391,0,0,1-.288-.892,1.639,1.639,0,0,1,.312-1,2.031,2.031,0,0,1,.819-.652,2.606,2.606,0,0,1,1.083-.228,2.859,2.859,0,0,1,1.319.306,2.2,2.2,0,0,1,.918.841l-.99.588a.976.976,0,0,0-.27-.324,1.509,1.509,0,0,0-.408-.231,1.528,1.528,0,0,0-.474-.1,1.677,1.677,0,0,0-.567.069.905.905,0,0,0-.417.255.641.641,0,0,0-.156.444.446.446,0,0,0,.186.393,1.532,1.532,0,0,0,.471.207q.285.078.585.174a6.213,6.213,0,0,1,1,.411,2.357,2.357,0,0,1,.756.6,1.277,1.277,0,0,1,.276.865,1.546,1.546,0,0,1-.339.991,2.137,2.137,0,0,1-.879.649A2.57,2.57,0,0,1,199.679.121Z" transform="translate(-0.72 9.144)"/></g></g><path class="c" d="M43.982,21.992a21.836,21.836,0,0,0-6.069-15.16l.009-.009-.383-.384-.355-.354-.009.008a21.989,21.989,0,1,0-15.186,37.89A21.835,21.835,0,0,0,37.17,37.9l.009.008.363-.362.375-.375-.014-.013a21.859,21.859,0,0,0,5.55-10.4h.017l.084-.419h0l.125-.626h-.017a22.167,22.167,0,0,0,.32-3.716M37.154,7.54a20.8,20.8,0,0,1,5.784,14.451,21.194,21.194,0,0,1-.329,3.716h-2.2l-30.2-.007a14.621,14.621,0,0,1-.539-3c-.01-.164-.022-.326-.025-.491,0-.1-.007-.192-.007-.289a12.278,12.278,0,0,1,.612-3.763H34.859l-.251-.7a13.466,13.466,0,0,0-2.98-4.784L34.288,10.2ZM30.629,30.828a12.355,12.355,0,0,1-20.043-4.081l22.79.006a12.418,12.418,0,0,1-2.747,4.076m-.127-17.8.009.009a12.453,12.453,0,0,1,2.836,4.073H10.639A12.355,12.355,0,0,1,30.5,13.032M21.991,42.937A20.946,20.946,0,1,1,36.413,6.8L33.641,9.377l-2.77,2.574A13.39,13.39,0,0,0,9.518,17.117l-.133.317a12.309,12.309,0,0,0-.8,4.4c0,.035,0,.069,0,.1,0,.02,0,.038,0,.057,0,.04.006.078.007.118.005.273.02.54.04.8a13.378,13.378,0,0,0,.382,2.385c.038.158.075.3.11.427s.063.234.1.349c.059.2.1.314.108.333l.124.346h.017a13.388,13.388,0,0,0,21.5,5.19l5.445,5.238a20.8,20.8,0,0,1-14.43,5.762m15.171-6.5-5.416-5.253a13.486,13.486,0,0,0,2.776-4.422c.96,0,3.669,0,5.94-.006h1.932a20.839,20.839,0,0,1-5.232,9.68" transform="translate(307.499 1107.504)"/></g></svg>